M48
; DRILL file {KiCad 9.0.5} date 2025-10-28T20:09:39+0100
; FORMAT={-:-/ absolute / metric / decimal}
; #@! TF.CreationDate,2025-10-28T20:09:39+01:00
; #@! TF.GenerationSoftware,Kicad,Pcbnew,9.0.5
; #@! TF.FileFunction,MixedPlating,1,2
FMAT,2
METRIC
; #@! TA.AperFunction,Plated,PTH,ViaDrill
T1C0.400
; #@! TA.AperFunction,Plated,PTH,ComponentDrill
T2C0.500
; #@! TA.AperFunction,Plated,PTH,ComponentDrill
T3C0.900
; #@! TA.AperFunction,Plated,PTH,ComponentDrill
T4C1.000
; #@! TA.AperFunction,Plated,PTH,ComponentDrill
T5C1.100
; #@! TA.AperFunction,Plated,PTH,ComponentDrill
T6C1.200
; #@! TA.AperFunction,Plated,PTH,ComponentDrill
T7C3.200
%
G90
G05
T1
X153.994Y-107.377
X154.051Y-94.996
X154.178Y-101.219
X154.193Y-113.045
X155.702Y-109.093
X157.569Y-95.885
X162.56Y-109.093
X162.56Y-112.141
X162.687Y-98.298
X162.687Y-114.3
X163.449Y-100.457
X164.465Y-90.805
X165.862Y-89.916
X165.862Y-114.046
X165.989Y-95.631
X166.209Y-92.583
X169.402Y-95.582
X169.482Y-94.335
X170.687Y-94.335
X170.687Y-95.885
X173.39Y-101.438
X174.432Y-114.266
X174.498Y-102.108
X178.86Y-108.204
X179.866Y-116.078
X180.207Y-107.73
X180.414Y-102.387
X180.467Y-112.395
X181.737Y-92.837
X183.023Y-112.014
X183.128Y-117.568
X183.134Y-100.965
X183.134Y-106.68
T2
X170.18Y-84.709
X170.18Y-90.678
T3
X148.59Y-93.599
X148.59Y-96.139
X148.59Y-99.441
X148.59Y-101.981
X148.717Y-105.283
X148.717Y-107.823
X148.844Y-111.125
X148.844Y-113.665
X154.812Y-92.583
X157.352Y-92.583
X181.101Y-86.035
X183.641Y-86.035
X188.976Y-94.578
X188.976Y-97.118
X188.976Y-100.33
X188.976Y-102.87
X188.976Y-106.172
X188.976Y-108.712
X188.976Y-112.014
X188.976Y-114.554
T4
X145.796Y-119.38
X148.336Y-119.38
X150.876Y-119.38
X153.416Y-119.38
X154.939Y-86.929
X177.673Y-85.725
X177.673Y-88.265
X177.673Y-90.805
T5
X157.479Y-86.929
X160.019Y-86.929
X162.559Y-86.929
T6
X141.859Y-94.798
X141.859Y-98.298
X141.859Y-101.798
X141.859Y-106.482
X141.859Y-109.982
X141.859Y-113.482
X144.554Y-88.843
X148.054Y-88.843
X187.127Y-88.9
X190.627Y-88.9
X194.127Y-88.9
X195.891Y-107.371
X195.891Y-110.871
X195.891Y-114.371
X195.961Y-95.687
X195.961Y-99.187
X195.961Y-102.687
T7
X139.573Y-119.888
X139.7Y-85.598
X198.755Y-119.888
X198.882Y-85.344
M30
