G04 #@! TF.GenerationSoftware,KiCad,Pcbnew,9.0.5*
G04 #@! TF.CreationDate,2025-10-28T20:08:08+01:00*
G04 #@! TF.ProjectId,WaterValveX8,57617465-7256-4616-9c76-6558382e6b69,Rev 4.0*
G04 #@! TF.SameCoordinates,Original*
G04 #@! TF.FileFunction,Paste,Top*
G04 #@! TF.FilePolarity,Positive*
%FSLAX46Y46*%
G04 Gerber Fmt 4.6, Leading zero omitted, Abs format (unit mm)*
G04 Created by KiCad (PCBNEW 9.0.5) date 2025-10-28 20:08:08*
%MOMM*%
%LPD*%
G01*
G04 APERTURE LIST*
G04 Aperture macros list*
%AMRoundRect*
0 Rectangle with rounded corners*
0 $1 Rounding radius*
0 $2 $3 $4 $5 $6 $7 $8 $9 X,Y pos of 4 corners*
0 Add a 4 corners polygon primitive as box body*
4,1,4,$2,$3,$4,$5,$6,$7,$8,$9,$2,$3,0*
0 Add four circle primitives for the rounded corners*
1,1,$1+$1,$2,$3*
1,1,$1+$1,$4,$5*
1,1,$1+$1,$6,$7*
1,1,$1+$1,$8,$9*
0 Add four rect primitives between the rounded corners*
20,1,$1+$1,$2,$3,$4,$5,0*
20,1,$1+$1,$4,$5,$6,$7,0*
20,1,$1+$1,$6,$7,$8,$9,0*
20,1,$1+$1,$8,$9,$2,$3,0*%
G04 Aperture macros list end*
%ADD10RoundRect,0.250000X-0.450000X0.325000X-0.450000X-0.325000X0.450000X-0.325000X0.450000X0.325000X0*%
%ADD11RoundRect,0.200000X-0.750000X-0.200000X0.750000X-0.200000X0.750000X0.200000X-0.750000X0.200000X0*%
%ADD12RoundRect,0.250000X0.450000X-0.350000X0.450000X0.350000X-0.450000X0.350000X-0.450000X-0.350000X0*%
%ADD13RoundRect,0.250000X0.350000X0.450000X-0.350000X0.450000X-0.350000X-0.450000X0.350000X-0.450000X0*%
%ADD14RoundRect,0.250000X-0.350000X-0.450000X0.350000X-0.450000X0.350000X0.450000X-0.350000X0.450000X0*%
%ADD15RoundRect,0.250000X0.450000X-0.325000X0.450000X0.325000X-0.450000X0.325000X-0.450000X-0.325000X0*%
%ADD16RoundRect,0.250000X-0.450000X0.350000X-0.450000X-0.350000X0.450000X-0.350000X0.450000X0.350000X0*%
%ADD17RoundRect,0.250000X-0.250000X0.250000X-0.250000X-0.250000X0.250000X-0.250000X0.250000X0.250000X0*%
%ADD18RoundRect,0.250000X0.650000X-0.412500X0.650000X0.412500X-0.650000X0.412500X-0.650000X-0.412500X0*%
%ADD19RoundRect,0.250000X0.475000X-0.337500X0.475000X0.337500X-0.475000X0.337500X-0.475000X-0.337500X0*%
%ADD20RoundRect,0.200000X0.750000X0.200000X-0.750000X0.200000X-0.750000X-0.200000X0.750000X-0.200000X0*%
%ADD21RoundRect,0.249999X-0.512501X-1.425001X0.512501X-1.425001X0.512501X1.425001X-0.512501X1.425001X0*%
%ADD22RoundRect,0.500000X0.875000X0.500000X-0.875000X0.500000X-0.875000X-0.500000X0.875000X-0.500000X0*%
%ADD23RoundRect,0.275000X-0.975000X-0.275000X0.975000X-0.275000X0.975000X0.275000X-0.975000X0.275000X0*%
%ADD24RoundRect,0.275000X0.275000X-0.975000X0.275000X0.975000X-0.275000X0.975000X-0.275000X-0.975000X0*%
%ADD25C,1.700000*%
%ADD26R,2.000000X3.200000*%
%ADD27R,1.910000X0.610000*%
%ADD28R,0.723000X0.930000*%
%ADD29RoundRect,0.250000X0.412500X0.650000X-0.412500X0.650000X-0.412500X-0.650000X0.412500X-0.650000X0*%
%ADD30RoundRect,0.250000X0.325000X0.450000X-0.325000X0.450000X-0.325000X-0.450000X0.325000X-0.450000X0*%
%ADD31RoundRect,0.250000X-0.412500X-0.650000X0.412500X-0.650000X0.412500X0.650000X-0.412500X0.650000X0*%
%ADD32RoundRect,0.250000X-0.475000X0.337500X-0.475000X-0.337500X0.475000X-0.337500X0.475000X0.337500X0*%
G04 APERTURE END LIST*
D10*
X188976000Y-112239000D03*
X188976000Y-114289000D03*
D11*
X183344700Y-114796000D03*
X183344700Y-116696000D03*
X186344700Y-115746000D03*
X183438700Y-109246000D03*
X183438700Y-111146000D03*
X186438700Y-110196000D03*
D12*
X180844700Y-111246000D03*
X180844700Y-109246000D03*
D13*
X158226000Y-118237000D03*
X156226000Y-118237000D03*
D12*
X180844700Y-116746000D03*
X180844700Y-114746000D03*
D14*
X184676700Y-112990000D03*
X186676700Y-112990000D03*
X184676700Y-107402000D03*
X186676700Y-107402000D03*
D13*
X158226000Y-120269000D03*
X156226000Y-120269000D03*
D15*
X162177700Y-96910000D03*
X162177700Y-94860000D03*
D16*
X159891700Y-94885000D03*
X159891700Y-96885000D03*
D17*
X191008000Y-113050000D03*
X191008000Y-115550000D03*
X191008000Y-107716000D03*
X191008000Y-110216000D03*
X191008000Y-102255000D03*
X191008000Y-104755000D03*
X191135000Y-96540000D03*
X191135000Y-99040000D03*
D12*
X180848000Y-100822000D03*
X180848000Y-98822000D03*
X180844700Y-105496000D03*
X180844700Y-103496000D03*
D10*
X188976000Y-100575000D03*
X188976000Y-102625000D03*
D11*
X183438700Y-103658000D03*
X183438700Y-105558000D03*
X186438700Y-104608000D03*
D10*
X188976000Y-94479000D03*
X188976000Y-96529000D03*
D14*
X184676700Y-101814000D03*
X186676700Y-101814000D03*
X184660700Y-96226000D03*
X186660700Y-96226000D03*
D11*
X183438700Y-98070000D03*
X183438700Y-99970000D03*
X186438700Y-99020000D03*
D10*
X188976000Y-106417000D03*
X188976000Y-108467000D03*
D14*
X176038000Y-96139000D03*
X178038000Y-96139000D03*
D15*
X148590000Y-101736000D03*
X148590000Y-99686000D03*
D18*
X151765000Y-89065500D03*
X151765000Y-85940500D03*
D12*
X182499000Y-95853000D03*
X182499000Y-93853000D03*
D19*
X161290000Y-91461500D03*
X161290000Y-89386500D03*
D13*
X152906700Y-106172000D03*
X150906700Y-106172000D03*
D20*
X154152700Y-110170000D03*
X154152700Y-108270000D03*
X151152700Y-109220000D03*
D21*
X167318200Y-87630000D03*
X173293200Y-87630000D03*
D14*
X155718000Y-100076000D03*
X157718000Y-100076000D03*
D22*
X176714300Y-116402700D03*
X176714300Y-113862700D03*
X176714300Y-111322700D03*
X176714300Y-108782700D03*
X176714300Y-106242700D03*
X176714300Y-103702700D03*
X176714300Y-101162700D03*
X160549300Y-101162700D03*
X160549300Y-103702700D03*
X160549300Y-106242700D03*
X160549300Y-108782700D03*
X160549300Y-111322700D03*
X160549300Y-113862700D03*
X160549300Y-116402700D03*
D23*
X173131700Y-109185200D03*
D24*
X170440700Y-103251000D03*
D23*
X173131700Y-111090200D03*
D24*
X167900700Y-103251000D03*
D25*
X169932700Y-117424200D03*
X167392700Y-117424200D03*
X169932700Y-114884200D03*
X167392700Y-114884200D03*
X169932700Y-112344200D03*
X167392700Y-112344200D03*
X169932700Y-109804200D03*
X167485300Y-109861000D03*
D15*
X148844000Y-113420000D03*
X148844000Y-111370000D03*
D26*
X166659700Y-87630000D03*
X174459700Y-87630000D03*
D17*
X181029700Y-89233000D03*
X181029700Y-91733000D03*
D27*
X167304200Y-93205000D03*
X167304200Y-94475000D03*
X167304200Y-95745000D03*
X167304200Y-97015000D03*
X172864200Y-97015000D03*
X172864200Y-95745000D03*
X172864200Y-94475000D03*
X172864200Y-93205000D03*
D28*
X169481700Y-94335000D03*
X169481700Y-95885000D03*
X170686700Y-94335000D03*
X170686700Y-95885000D03*
D29*
X181775500Y-119253000D03*
X178650500Y-119253000D03*
D13*
X152890700Y-112268000D03*
X150890700Y-112268000D03*
D16*
X156591000Y-113808000D03*
X156591000Y-115808000D03*
D13*
X152890700Y-100076000D03*
X150890700Y-100076000D03*
D12*
X183779700Y-91483000D03*
X183779700Y-89483000D03*
D30*
X157106700Y-92583000D03*
X155056700Y-92583000D03*
X183395700Y-86035500D03*
X181345700Y-86035500D03*
D12*
X164336700Y-96885000D03*
X164336700Y-94885000D03*
D16*
X156591000Y-95774000D03*
X156591000Y-97774000D03*
X156688700Y-102246000D03*
X156688700Y-104246000D03*
D31*
X183730500Y-119253000D03*
X186855500Y-119253000D03*
D32*
X180185700Y-93850500D03*
X180185700Y-95925500D03*
D17*
X146558000Y-95016000D03*
X146558000Y-97516000D03*
D19*
X163449000Y-91461500D03*
X163449000Y-89386500D03*
D17*
X146685000Y-106700000D03*
X146685000Y-109200000D03*
X146812000Y-112161000D03*
X146812000Y-114661000D03*
D16*
X156688700Y-108220000D03*
X156688700Y-110220000D03*
D13*
X152636700Y-93853000D03*
X150636700Y-93853000D03*
D17*
X146558000Y-100858000D03*
X146558000Y-103358000D03*
D20*
X154025700Y-97978000D03*
X154025700Y-96078000D03*
X151025700Y-97028000D03*
D15*
X148717000Y-107578000D03*
X148717000Y-105528000D03*
D20*
X154152700Y-104074000D03*
X154152700Y-102174000D03*
X151152700Y-103124000D03*
D13*
X178038000Y-93980000D03*
X176038000Y-93980000D03*
D20*
X154152700Y-116266000D03*
X154152700Y-114366000D03*
X151152700Y-115316000D03*
D15*
X148590000Y-95894000D03*
X148590000Y-93844000D03*
M02*
